PathFileType	4	(X/Y/Z)	Patient4_TMGait_0pt3_01_right_11.trc.trc
DataRate	CameraRate	NumFrames	NumMarkers	Units	OrigDataRate	OrigDataStartFrame	OrigNumFrames
51.282051282051	51.282051282051	5	33	mm	51.282051282051	89	       141
Frame#	Time	Sacral			L.Shoulder			Chest			R.Shoulder			Neck			R.ASIS			L.ASIS			R.Thigh.Superior			R.Thigh.Lateral			R.Thigh.Inferior			R.Patella			L.Thigh.Superior			L.Thigh.Lateral			L.Thigh.Inferior			L.Patella			L.Shank.Superior			L.Shank.Lateral			L.Shank.Inferior			R.Shank.Superior			R.Shank.Lateral			R.Shank.Inferior			R.Heel			R.Midfoot.Superior			R.Midfoot.Lateral			R.Toe			L.Heel			L.Midfoot.Lateral			L.Midfoot.Superior			L.Toe			L.Elbow			L.Wrist			R.Elbow			R.Wrist			
		X1	Y1	Z1	X2	Y2	Z2	X3	Y3	Z3	X4	Y4	Z4	X5	Y5	Z5	X6	Y6	Z6	X7	Y7	Z7	X8	Y8	Z8	X9	Y9	Z9	X10	Y10	Z10	X11	Y11	Z11	X12	Y12	Z12	X13	Y13	Z13	X14	Y14	Z14	X15	Y15	Z15	X16	Y16	Z16	X17	Y17	Z17	X18	Y18	Z18	X19	Y19	Z19	X20	Y20	Z20	X21	Y21	Z21	X22	Y22	Z22	X23	Y23	Z23	X24	Y24	Z24	X25	Y25	Z25	X26	Y26	Z26	X27	Y27	Z27	X28	Y28	Z28	X29	Y29	Z29	X30	Y30	Z30	X31	Y31	Z31	X32	Y32	Z32	X33	Y33	Z33	

89	21.086000000000	638.519798198162	1011.236612489770	462.926557746875	791.839536949663	1430.668517246232	258.068132006996	918.487803504384	1362.739888774211	402.116496964264	864.264321200000	1442.784109472612	583.555097716606	804.292946703800	1494.951086529794	413.264007280442	872.315256186885	937.070762982909	564.337086500994	841.061088430827	959.757788423866	291.694928965682	857.356817346643	723.370420840151	549.746109628709	748.151683601218	636.837838209022	616.446550273245	808.752926971800	562.377624303279	543.087694138834	781.295067254957	469.686756533590	557.562095095492	907.888771135748	761.908711381128	332.837693951022	837.809525728535	633.645940062690	268.978658426288	931.002887465133	566.802087255971	334.705777130488	939.664767569318	495.043497773800	341.734375882857	910.979255752270	421.116118026980	332.864935123128	822.334790232606	307.233937686256	281.516631631956	873.673637244836	194.721100895849	348.964713010565	716.134401681494	399.348730094661	568.788541019578	606.406464907642	337.592865496615	631.872844491809	612.644623118732	227.268695805155	581.064486783658	425.206403562660	114.944969742590	552.681035839189	601.723241614297	106.965560443880	596.933923940246	496.839158488483	76.323104571383	628.743361634315	693.907808305839	35.292667548887	628.481387320562	744.710173247905	39.549755928706	386.571215655925	817.721902344758	36.360157090690	305.412294644019	902.597902118311	96.607672736426	331.906122952002	1029.635170514357	41.230754651783	300.089674046039	682.348857747958	1100.546613380198	145.523552363699	806.846412478690	871.516494348274	121.594258879183	1025.803725477592	1143.258793490354	689.488180692707	1272.364358579616	1169.308221532239	625.809487036980	
90	21.105500000000	639.562030733194	1012.304079522176	457.355362316306	794.937327964489	1432.144185426536	254.161783539576	920.335519879141	1363.463998145055	398.902683525341	865.159910157256	1443.210955442389	580.185801894865	806.428077212192	1495.862852069396	409.762181059002	872.709079592777	937.990345090189	559.912978899163	842.822899446815	960.197619461174	287.146292482571	858.029455438422	724.289597271944	546.578754643855	748.803752603071	638.066268910559	613.503309164280	809.948678646100	563.056886261028	540.836473023640	782.573696713475	469.882152270835	556.346750976743	908.274885099111	761.548196522787	329.369488608001	837.256490636391	633.333593414149	266.284142833313	929.531662360351	566.026530931871	332.698876348686	937.490248618809	494.185465810797	340.142366909099	908.117051808642	420.438836297102	331.423752460760	818.583130389848	307.037129041068	280.592872951433	869.042093569036	194.458156019003	348.568485147017	716.450304163341	400.269203821527	567.808178530192	605.730838235530	340.431379698035	631.046615550642	610.997636864990	229.489758275653	581.279059169782	422.008799194741	120.617405992934	553.407400623735	598.365633692093	107.831148697889	597.612132562375	492.609501625756	79.628021487611	629.168414991312	688.323907408962	35.065274973936	628.539116852306	738.891227185652	39.705840426806	386.641732076591	811.882254792658	36.435735489245	305.526518934807	896.893055590805	96.556685055460	331.925760857687	1023.832773603965	40.821860428695	300.039601186585	687.492577288926	1103.110004118859	136.443796453973	815.892821891699	876.343862674466	112.564466905037	1021.075711766020	1139.677939554398	686.940287408778	1271.108294982607	1151.299816611759	631.624306720648	
91	21.125000000000	640.392618493110	1012.937730709907	451.778655222789	798.016495391996	1433.196400552092	250.353467446837	922.056200735185	1363.755486379934	395.856075537086	865.833866524070	1443.226934847500	576.946595722124	808.442598305585	1496.374721946992	406.350134452938	872.833280973609	938.551555042968	555.597179521262	844.475531757455	960.313268082264	282.719561957829	859.120589016550	724.861453106334	543.321477958153	750.249258374118	638.595901158946	610.440049364342	812.156412161866	563.246486054844	538.394766896827	785.009488441604	469.361289224632	555.033412080147	908.725279076216	761.024136785684	326.036523637442	837.023857008106	632.828405103094	263.653450363494	928.432546300688	565.167641095998	330.800597986748	935.760256293390	493.185808940887	338.624407103375	905.621736881371	419.580130905780	330.050973247850	815.105427669160	306.765456182439	279.666557152856	864.511045169203	194.082315748584	348.191150098990	717.713668845456	400.575725326189	566.647942184302	605.876425027682	343.015684382788	630.011659665201	609.775262049955	231.528742522685	581.264225810841	419.147564319218	126.689686681335	553.844268856273	595.108839221069	108.952766071418	598.224689435854	488.514156349350	83.391467626378	629.398060281454	682.631658825340	34.721613588998	628.630028993396	733.061032417911	39.821660710308	386.693382758940	806.034769298461	36.480725524690	305.612248352535	891.156400522396	96.503290668695	331.948342858084	1018.016898066874	40.482064573116	300.002790192232	692.934642980252	1105.246883584475	127.422854410999	825.057698481117	880.693901577838	103.787659207624	1015.336199326556	1135.331245716858	684.418983788415	1267.831956775355	1131.416419273954	637.901010155822	
92	21.144500000000	640.972380353143	1013.075406221328	446.220335408656	801.064242049593	1433.763911255280	246.662958736320	923.626587000547	1363.560940283544	393.006744025093	866.252030147601	1442.784473113910	573.861432330950	810.324002488432	1496.442834550650	403.036576425380	872.670773538997	938.705708419977	551.391247433384	845.973121281039	960.090001103792	278.423487997905	860.748788563515	725.080362500046	539.925887026921	752.695483811688	638.367283406088	607.229399550927	815.599436294755	562.930452864775	535.703275156275	788.845244892027	468.094300979376	553.555465220523	909.233174854729	760.314592241340	322.798786804017	837.095328420912	632.098472596564	261.085591065848	927.716772062039	564.205920532204	329.002588966717	934.504187092719	492.022076450654	337.173920108510	903.515433904654	418.515322348027	328.748620475889	811.919377467056	306.403419662235	278.741963908564	860.078351108334	193.578046353057	347.832283404210	720.136695302634	400.251622542422	565.237907122462	607.039016040068	345.391213603222	628.655283971707	609.123673742198	233.451393206028	580.911297241215	416.776038738435	133.368987401571	553.812931589521	592.031930256905	110.428612838960	598.673806102592	484.640293192240	87.832972704660	629.309657876743	676.799470578098	34.250957007121	628.750452136440	727.221679458290	39.895042776497	386.722032808878	800.182294834306	36.493846274343	305.665498299680	885.389083346982	96.445228665079	331.971913388491	1012.190044170084	40.210892505916	299.974931444408	698.782298062086	1106.859767482140	118.514016669118	834.552999734428	884.524321617148	95.302176253036	1008.538164801915	1130.255540330329	681.954424681017	1262.233053036805	1109.792368227113	644.435368673611	
93	21.164000000000	641.275434337669	1012.677088134686	440.710374925191	804.048793715142	1433.818459621920	243.119032539343	925.014561631046	1362.858337389132	390.384475058993	866.376284851870	1441.855007864222	570.960724573953	812.051771023533	1496.047412728386	399.843082712406	872.220584680957	938.429322061603	547.290573058764	847.278241312119	959.526528047585	274.262081754505	863.001528703986	724.975498510662	536.360069765603	756.291571420247	637.385748413848	603.856876639331	820.429944389768	562.146248800747	532.719832725916	794.249244851987	466.124450787825	551.849843912686	909.799260846046	759.410995831704	319.622557304200	837.452075718199	631.122186928350	258.586688233827	927.389335916679	563.127949574788	327.301233934607	933.741582877876	490.680230301007	335.792340769481	901.813247704523	417.230340799464	327.523265474142	809.038220842147	305.943770245409	277.829687873838	855.744064687041	192.938232641937	347.494061602187	723.879877861231	399.339941323933	563.518669283987	609.373952719190	347.636332982940	626.871202170676	609.188294256408	235.353001990289	580.122111822610	415.068044393834	140.841254192661	553.130295986127	589.235645876016	112.347163519999	598.843090047648	481.102481420298	93.155817153730	628.774876645477	670.826137296907	33.661242639998	628.891188878266	721.377379743942	39.932287296648	386.725702500089	794.329296287782	36.478935722364	305.686339084263	879.598488076803	96.379960540247	331.995440764325	1006.356621399658	39.998140016121	299.950752151371	705.132690979921	1107.885577647067	109.774902002519	844.583670878512	887.839375361964	87.149721213874	1000.646772049333	1124.521303777080	679.585257495585	1254.038707517052	1086.626291683605	651.016415034607	
